HIERARCHY
ROOT Hips
{
	OFFSET 0.000000 0.000000 0.000000
	CHANNELS 6 Xposition Yposition Zposition Zrotation Yrotation Xrotation 
	JOINT LHipJoint
	{
		OFFSET 0.000000 0.000000 0.000000
		CHANNELS 3 Zrotation Yrotation Xrotation
		JOINT LeftUpLeg
		{
			OFFSET 1.363060 -1.794630 0.839290
			CHANNELS 3 Zrotation Yrotation Xrotation
			JOINT LeftLeg
			{
				OFFSET 2.448110 -6.726130 0.000000
				CHANNELS 3 Zrotation Yrotation Xrotation
				JOINT LeftFoot
				{
					OFFSET 2.562200 -7.039590 0.000000
					CHANNELS 3 Zrotation Yrotation Xrotation
					JOINT LeftToeBase
					{
						OFFSET 0.157640 -0.433110 2.322550
						CHANNELS 3 Zrotation Yrotation Xrotation
						End Site
						{
							OFFSET 0.000000 0.000000 0.000000
						}
					}
				}
			}
		}
	}
	JOINT RHipJoint
	{
		OFFSET 0.000000 0.000000 0.000000
		CHANNELS 3 Zrotation Yrotation Xrotation
		JOINT RightUpLeg
		{
			OFFSET -1.305520 -1.794630 0.839290
			CHANNELS 3 Zrotation Yrotation Xrotation
			JOINT RightLeg
			{
				OFFSET -2.542530 -6.985550 0.000000
				CHANNELS 3 Zrotation Yrotation Xrotation
				JOINT RightFoot
				{
					OFFSET -2.568260 -7.056230 0.000000
					CHANNELS 3 Zrotation Yrotation Xrotation
					JOINT RightToeBase
					{
						OFFSET -0.164730 -0.452590 2.363150
						CHANNELS 3 Zrotation Yrotation Xrotation
						End Site
						{
							OFFSET 0.000000 0.000000 0.000000
						}
					}
				}
			}
		}
	}
}
MOTION
Frames: 17
Frame Time: 0.008333
-1.582661 17.574611 -1.752647 -124.619185 84.861403 -106.747857 -11.572064 2.589509 0.760768 -9.468546 -3.103846 -4.204301 -0.510775 1.034000 20.649097 0.917894 5.925350 7.002091 1.432600 0.000000 -54.099400 7.229033 -0.610146 2.705142 9.282514 5.881438 -31.913769 3.540030 0.789021 6.769454 -0.345466 -1.270285 -1.364492 -0.694600 -0.000000 -52.308100
-1.342842 17.600837 -1.766775 -126.885064 84.752610 -109.159720 -11.583906 2.644681 0.701440 -9.523434 -3.173719 -3.786295 -0.381511 1.131524 21.525720 1.057369 6.907898 8.034323 1.761900 -0.000000 -52.159300 7.212087 -0.517216 2.773536 9.103879 5.845679 -31.336225 3.674180 1.075411 4.450770 -0.108477 -0.156585 -0.940193 -0.540400 -0.000000 -53.308900
-1.104472 17.616642 -1.780242 -129.277022 84.644267 -111.703610 -11.591068 2.684340 0.630649 -9.627001 -3.160088 -3.600599 -0.250739 1.230943 22.854410 1.235474 8.174358 8.640927 2.150700 0.000000 -49.835400 7.215812 -0.431622 2.821453 8.900098 5.779243 -30.915476 3.777208 1.281387 2.766810 0.114363 0.969284 -0.608550 -0.369300 -0.000000 -54.446101
-0.867993 17.621599 -1.792960 -131.601383 84.527150 -114.185666 -11.600659 2.705392 0.538072 -9.746149 -3.028353 -3.638309 -0.119178 1.332945 24.608291 1.448616 9.687605 8.846670 2.580199 -0.000000 -47.180500 7.232548 -0.363570 2.862204 8.668376 5.756982 -30.621693 3.848733 1.408150 1.672219 0.311981 2.022804 -0.312186 -0.201299 0.000000 -55.741800
-0.633657 17.615144 -1.804861 -133.760806 84.398104 -116.508397 -11.618098 2.707326 0.421504 -9.858370 -2.777934 -3.878830 0.011469 1.438751 26.741505 1.692900 11.402891 8.692493 3.022900 -0.000000 -44.270800 7.256890 -0.319872 2.900462 8.413111 5.812408 -30.439689 3.890709 1.456140 1.144349 0.479844 2.955822 -0.017982 -0.046000 0.000000 -57.144300
-0.401522 17.596858 -1.816034 -135.547487 84.247207 -118.450837 -11.652555 2.687812 0.275887 -9.920900 -2.397040 -4.321375 0.138944 1.550116 29.213037 1.959145 13.235876 8.212047 3.433900 0.000001 -41.115000 7.278134 -0.307288 2.959207 8.123613 6.054447 -30.332363 3.896727 1.437010 1.076153 0.603283 3.640028 0.340511 0.075700 -0.000000 -58.638300
-0.171862 17.566325 -1.826615 -136.988109 84.079346 -120.047788 -11.704183 2.651746 0.110757 -9.933708 -1.930865 -4.922876 0.260847 1.669360 31.952536 2.240221 15.130572 7.467805 3.782500 0.000000 -37.871600 7.295800 -0.324952 3.021466 7.834349 6.420198 -30.318589 3.875323 1.347241 1.512313 0.691828 4.129907 0.727603 0.172900 0.000000 -60.072100
0.055309 17.523375 -1.836979 -137.993514 83.888425 -121.204564 -11.776989 2.601433 -0.069563 -9.874345 -1.401228 -5.667343 0.375924 1.798939 34.908288 2.523369 16.997711 6.508507 4.030200 -0.000000 -34.657499 7.303645 -0.372283 3.090716 7.565443 6.928404 -30.389782 3.826115 1.195856 2.402735 0.742441 4.393861 1.140805 0.238200 0.000000 -61.367800
0.279896 17.468028 -1.847652 -138.562359 83.671235 -121.919280 -11.871445 2.541480 -0.255529 -9.736446 -0.842534 -6.536826 0.484171 1.940826 38.031401 2.795656 18.757488 5.383410 4.149700 -0.000000 -31.617299 7.299592 -0.444896 3.158203 7.353662 7.533945 -30.563883 3.753721 0.987829 3.750723 0.760188 4.470817 1.527769 0.273700 -0.000000 -62.411500
0.501928 17.400620 -1.859344 -138.677930 83.418443 -122.170763 -11.989841 2.474771 -0.439510 -9.507493 -0.280464 -7.523673 0.587400 2.096435 41.285358 3.043837 20.332022 4.130837 4.121600 0.000001 -28.865700 7.279070 -0.537830 3.220848 7.232995 8.212640 -30.845094 3.660760 0.733448 5.523555 0.746281 4.375873 1.837141 0.276800 -0.000000 -63.135300
0.721394 17.321654 -1.872536 -138.457123 83.131382 -122.075646 -12.128254 2.406747 -0.609628 -9.204786 0.251562 -8.619044 0.687846 2.265832 44.636995 3.258427 21.670523 2.780130 3.941700 0.000000 -26.452300 7.246494 -0.642258 3.263646 7.236993 8.872200 -31.269854 3.553341 0.435736 7.758230 0.710880 4.198366 1.967593 0.258801 0.000000 -63.437900
0.938341 17.232073 -1.887907 -137.957696 82.804598 -121.685712 -12.286700 2.338786 -0.759060 -8.832481 0.734747 -9.825474 0.789167 2.448289 48.061585 3.432446 22.734452 1.350381 3.615200 0.000000 -24.406199 7.201381 -0.751327 3.285071 7.380586 9.482530 -31.841348 3.432963 0.105648 10.417776 0.655422 3.958631 1.852432 0.221700 0.000000 -63.315900
1.152781 17.133005 -1.905663 -137.334555 82.444580 -121.151696 -12.459784 2.273734 -0.880192 -8.420608 1.148314 -11.142325 0.894177 2.641976 51.533327 3.564018 23.515428 -0.154746 3.156301 -0.000000 -22.619200 7.151216 -0.856244 3.278240 7.661517 9.982947 -32.575708 3.301555 -0.250560 13.499288 0.585873 3.712208 1.408085 0.176000 -0.000000 -62.729800
1.364818 17.026088 -1.925942 -136.693462 82.055598 -120.572234 -12.644167 2.210970 -0.969669 -7.990680 1.480235 -12.571436 1.006291 2.844219 55.023700 3.655152 24.027706 -1.720116 2.592100 0.000000 -21.092400 7.100143 -0.950863 3.246848 8.058207 10.365967 -33.457943 3.158604 -0.620863 16.934755 0.501555 3.460141 0.598816 0.124699 0.000000 -61.739000
1.574489 16.913284 -1.948691 -136.135480 81.644409 -120.043068 -12.835270 2.148791 -1.027020 -7.566415 1.724108 -14.109840 1.127678 3.051940 58.500345 3.711101 24.304459 -3.338782 1.951400 0.000000 -19.733799 7.052910 -1.030430 3.196550 8.537514 10.637288 -34.458106 3.004704 -0.992476 20.634263 0.401038 3.196398 -0.585300 0.071700 -0.000000 -60.410600
1.781778 16.797022 -1.973776 -135.722895 81.216596 -119.624663 -13.029151 2.083695 -1.055052 -7.164115 1.880531 -15.748021 1.259556 3.261860 61.924595 3.739553 24.394253 -4.996681 1.265600 -0.000000 -18.483900 7.011681 -1.093006 3.135063 9.065527 10.820725 -35.524088 2.842895 -1.351360 24.474741 0.281735 2.902773 -2.116832 0.021200 -0.000000 -58.858100
1.986637 16.680037 -2.001000 -135.480227 80.777771 -119.346113 -13.222056 2.011378 -1.059465 -6.793163 1.957596 -17.465644 1.402268 3.470653 65.251065 3.749737 24.356887 -6.660438 0.569401 -0.000000 -17.414301 6.976793 -1.139159 3.068565 9.613257 10.944325 -36.589027 2.678893 -1.685172 28.321610 0.141950 2.564036 -3.941231 -0.019500 0.000000 -57.224100
